<svg width="30" height="30" viewBox="0 0 30 30" fill="none" xmlns="http://www.w3.org/2000/svg">
<g clip-path="url(#clip0_7:7)">
<path d="M6.5625 3C6.81114 3 7.0496 3.09877 7.22541 3.27459C7.40123 3.4504 7.5 3.68886 7.5 3.9375V4.875H22.5V3.9375C22.5 3.68886 22.5988 3.4504 22.7746 3.27459C22.9504 3.09877 23.1889 3 23.4375 3C23.6861 3 23.9246 3.09877 24.1004 3.27459C24.2762 3.4504 24.375 3.68886 24.375 3.9375V4.875H26.25C27.2446 4.875 28.1984 5.27009 28.9016 5.97335C29.6049 6.67661 30 7.63044 30 8.625V29.25C30 30.2446 29.6049 31.1984 28.9016 31.9016C28.1984 32.6049 27.2446 33 26.25 33H3.75C2.75544 33 1.80161 32.6049 1.09835 31.9016C0.395088 31.1984 0 30.2446 0 29.25V8.625C0 7.63044 0.395088 6.67661 1.09835 5.97335C1.80161 5.27009 2.75544 4.875 3.75 4.875H5.625V3.9375C5.625 3.68886 5.72377 3.4504 5.89959 3.27459C6.0754 3.09877 6.31386 3 6.5625 3V3ZM25.2263 8.625H4.77188C4.20937 8.625 3.75 9.045 3.75 9.5625V11.4375C3.75 11.955 4.2075 12.375 4.77188 12.375H25.2281C25.7906 12.375 26.25 11.955 26.25 11.4375V9.5625C26.25 9.045 25.7925 8.625 25.2263 8.625ZM21.5625 16.125C21.3139 16.125 21.0754 16.2238 20.8996 16.3996C20.7238 16.5754 20.625 16.8139 20.625 17.0625V18.9375C20.625 19.1861 20.7238 19.4246 20.8996 19.6004C21.0754 19.7762 21.3139 19.875 21.5625 19.875H23.4375C23.6861 19.875 23.9246 19.7762 24.1004 19.6004C24.2762 19.4246 24.375 19.1861 24.375 18.9375V17.0625C24.375 16.8139 24.2762 16.5754 24.1004 16.3996C23.9246 16.2238 23.6861 16.125 23.4375 16.125H21.5625Z" fill="white"/>
</g>
<defs>
<clipPath id="clip0_7:7">
<rect width="30" height="30" fill="white"/>
</clipPath>
</defs>
</svg>
