<svg width="40" height="40" viewBox="0 0 40 40" fill="none" xmlns="http://www.w3.org/2000/svg">
<g clip-path="url(#clip0_139:487)">
<path d="M24.43 16.455C24.43 15.2735 23.9607 14.1403 23.1252 13.3048C22.2897 12.4694 21.1566 12 19.975 12C18.7935 12 17.6603 12.4694 16.8249 13.3048C15.9894 14.1403 15.52 15.2735 15.52 16.455C15.52 17.6365 15.9894 18.7697 16.8249 19.6052C17.6603 20.4406 18.7935 20.91 19.975 20.91C21.1566 20.91 22.2897 20.4406 23.1252 19.6052C23.9607 18.7697 24.43 17.6365 24.43 16.455Z" fill="white"/>
<path d="M5.03125 30.0209H11.0092V24.0489L11.0252 23.6889C11.0772 23.0949 11.2612 22.539 11.5452 22.049H6.03125L5.79725 22.063C5.31075 22.1203 4.8622 22.3541 4.53668 22.7202C4.21116 23.0863 4.03131 23.5591 4.03125 24.0489V29.0209C4.03125 29.2862 4.13661 29.5405 4.32414 29.7281C4.51168 29.9156 4.76603 30.0209 5.03125 30.0209Z" fill="white"/>
<path d="M35.98 29.0209C35.98 29.2862 35.8746 29.5405 35.6871 29.7281C35.4996 29.9156 35.2452 30.0209 34.98 30.0209H28.948V24.0489L28.936 23.7509C28.8923 23.1513 28.7132 22.5693 28.412 22.049H33.98C34.4702 22.0491 34.9432 22.2292 35.3093 22.5551C35.6754 22.8811 35.9091 23.3301 35.966 23.8169L35.98 24.0489V29.0209Z" fill="white"/>
<path d="M26.934 23.8169C26.8771 23.3297 26.6431 22.8804 26.2766 22.5545C25.9101 22.2285 25.4365 22.0486 24.946 22.049H15.01L14.776 22.063C14.2895 22.1203 13.841 22.3541 13.5154 22.7202C13.1899 23.0863 13.0101 23.5591 13.01 24.049V30.0209H26.946V24.049L26.934 23.8169Z" fill="white"/>
<path d="M29.95 13.255C30.965 13.255 31.9384 13.6582 32.6561 14.3759C33.3738 15.0936 33.777 16.067 33.777 17.082C33.777 18.097 33.3738 19.0704 32.6561 19.7881C31.9384 20.5058 30.965 20.909 29.95 20.909C28.9351 20.909 27.9617 20.5058 27.2439 19.7881C26.5262 19.0704 26.123 18.097 26.123 17.082C26.123 16.067 26.5262 15.0936 27.2439 14.3759C27.9617 13.6582 28.9351 13.255 29.95 13.255Z" fill="white"/>
<path d="M13.8601 17.081C13.8601 16.066 13.4569 15.0926 12.7392 14.3749C12.0215 13.6572 11.048 13.254 10.0331 13.254C9.01807 13.254 8.04466 13.6572 7.32696 14.3749C6.60926 15.0926 6.20605 16.066 6.20605 17.081C6.20605 18.0957 6.60915 19.0689 7.32666 19.7864C8.04418 20.5039 9.01734 20.907 10.0321 20.907C11.0468 20.907 12.0199 20.5039 12.7374 19.7864C13.455 19.0689 13.8581 18.0957 13.8581 17.081H13.8601Z" fill="white"/>
<path d="M5 32.021C4.73478 32.021 4.48043 32.1264 4.29289 32.3139C4.10536 32.5014 4 32.7558 4 33.021V35.021C4 36.3471 4.52678 37.6188 5.46447 38.5565C6.40215 39.4942 7.67392 40.021 9 40.021H31C32.3261 40.021 33.5979 39.4942 34.5355 38.5565C35.4732 37.6188 36 36.3471 36 35.021V33.021C36 32.7558 35.8946 32.5014 35.7071 32.3139C35.5196 32.1264 35.2652 32.021 35 32.021H5Z" fill="white"/>
</g>
<defs>
<clipPath id="clip0_139:487">
<rect width="40" height="40" fill="white"/>
</clipPath>
</defs>
</svg>
