<svg width="30" height="30" viewBox="0 0 30 30" fill="none" xmlns="http://www.w3.org/2000/svg">
<g clip-path="url(#clip0_7:5)">
<path d="M28.0098 17.3332L15.9424 5.27463C15.8555 5.18758 15.7523 5.11851 15.6387 5.07138C15.5251 5.02426 15.4033 5 15.2803 5C15.1573 5 15.0355 5.02426 14.9219 5.07138C14.8082 5.11851 14.705 5.18758 14.6182 5.27463L2.55078 17.3332C2.19922 17.6848 2 18.1623 2 18.6604C2 19.6946 2.84082 20.5354 3.875 20.5354H5.14648V29.1399C5.14648 29.6584 5.56543 30.0774 6.08398 30.0774H13.4053V23.5149H16.6865V30.0774H24.4765C24.9951 30.0774 25.414 29.6584 25.414 29.1399V20.5354H26.6855C27.1836 20.5354 27.6611 20.3391 28.0127 19.9846C28.7422 19.2522 28.7422 18.0657 28.0098 17.3332Z" fill="white"/>
</g>
<defs>
<clipPath id="clip0_7:5">
<rect width="30" height="30" fill="white"/>
</clipPath>
</defs>
</svg>
