<svg width="30" height="30" viewBox="0 0 30 30" fill="none" xmlns="http://www.w3.org/2000/svg">
<path d="M15 2.6087C12.9545 2.6087 11.3565 3.32881 10.206 4.76903C9.0554 6.20925 8.48011 8.05028 8.48011 10.2921C8.46591 13.0775 9.40341 15.2853 11.2926 16.9158C11.5341 17.1332 11.6193 17.4117 11.5483 17.7514L11.0582 18.7296C10.902 19.0557 10.6712 19.3105 10.3658 19.4939C10.0604 19.6773 9.41761 19.9389 8.4375 20.2785C8.39489 20.2921 7.49645 20.5707 5.74219 21.1141C3.98793 21.6576 3.05398 21.9565 2.94034 22.0109C1.74716 22.4864 0.965909 22.9823 0.596591 23.4986C0.198864 24.3546 0 26.5217 0 30H30C30 26.5217 29.8011 24.3546 29.4034 23.4986C29.0341 22.9823 28.2528 22.4864 27.0597 22.0109C26.946 21.9565 26.0121 21.6576 24.2578 21.1141C22.5036 20.5707 21.6051 20.2921 21.5625 20.2785C20.5824 19.9389 19.9396 19.6773 19.6342 19.4939C19.3288 19.3105 19.098 19.0557 18.9418 18.7296L18.4517 17.7514C18.3807 17.4117 18.4659 17.1332 18.7074 16.9158C20.5966 15.2853 21.5341 13.0775 21.5199 10.2921C21.5199 8.05028 20.9446 6.20925 19.794 4.76903C18.6435 3.32881 17.0455 2.6087 15 2.6087Z" fill="white"/>
</svg>
