<svg width="60" height="55" viewBox="0 0 75 67" fill="none" xmlns="http://www.w3.org/2000/svg">
<path d="M7.8125 33.5H67.1875" stroke="black" stroke-width="4" stroke-linecap="round" stroke-linejoin="round"/>
<path d="M43.75 5.58331H31.25C30.4212 5.58331 29.6263 5.87743 29.0403 6.40097C28.4542 6.92451 28.125 7.63458 28.125 8.37498V19.5416C28.125 20.282 28.4542 20.9921 29.0403 21.5157C29.6263 22.0392 30.4212 22.3333 31.25 22.3333H43.75C44.5788 22.3333 45.3737 22.0392 45.9597 21.5157C46.5458 20.9921 46.875 20.282 46.875 19.5416V8.37498C46.875 7.63458 46.5458 6.92451 45.9597 6.40097C45.3737 5.87743 44.5788 5.58331 43.75 5.58331ZM25 44.6666H12.5C11.6712 44.6666 10.8763 44.9608 10.2903 45.4843C9.70424 46.0078 9.375 46.7179 9.375 47.4583V58.625C9.375 59.3654 9.70424 60.0755 10.2903 60.599C10.8763 61.1225 11.6712 61.4166 12.5 61.4166H25C25.8288 61.4166 26.6237 61.1225 27.2097 60.599C27.7958 60.0755 28.125 59.3654 28.125 58.625V47.4583C28.125 46.7179 27.7958 46.0078 27.2097 45.4843C26.6237 44.9608 25.8288 44.6666 25 44.6666ZM62.5 44.6666H50C49.1712 44.6666 48.3763 44.9608 47.7903 45.4843C47.2042 46.0078 46.875 46.7179 46.875 47.4583V58.625C46.875 59.3654 47.2042 60.0755 47.7903 60.599C48.3763 61.1225 49.1712 61.4166 50 61.4166H62.5C63.3288 61.4166 64.1237 61.1225 64.7097 60.599C65.2958 60.0755 65.625 59.3654 65.625 58.625V47.4583C65.625 46.7179 65.2958 46.0078 64.7097 45.4843C64.1237 44.9608 63.3288 44.6666 62.5 44.6666Z" fill="#E8F1FE" stroke="black" stroke-width="4" stroke-linejoin="round"/>
<path d="M18.75 44.6666V33.5M37.5 33.5V22.3333V33.5ZM56.25 44.6666V33.5V44.6666Z" stroke="black" stroke-width="4" stroke-linecap="round" stroke-linejoin="round"/>
</svg>
