<svg width="60" height="55" viewBox="0 0 61 64" fill="none" xmlns="http://www.w3.org/2000/svg">
<path d="M41.9375 26C41.9375 25.4696 42.1383 24.9609 42.4958 24.5858C42.8533 24.2107 43.3382 24 43.8438 24H47.6562C48.1618 24 48.6467 24.2107 49.0042 24.5858C49.3617 24.9609 49.5625 25.4696 49.5625 26V30C49.5625 30.5304 49.3617 31.0391 49.0042 31.4142C48.6467 31.7893 48.1618 32 47.6562 32H43.8438C43.3382 32 42.8533 31.7893 42.4958 31.4142C42.1383 31.0391 41.9375 30.5304 41.9375 30V26Z" fill="black"/>
<path d="M13.3438 0C13.8493 0 14.3342 0.210714 14.6917 0.585786C15.0492 0.960859 15.25 1.46957 15.25 2V4H45.75V2C45.75 1.46957 45.9508 0.960859 46.3083 0.585786C46.6658 0.210714 47.1507 0 47.6562 0C48.1618 0 48.6467 0.210714 49.0042 0.585786C49.3617 0.960859 49.5625 1.46957 49.5625 2V4H53.375C55.3973 4 57.3367 4.84285 58.7667 6.34315C60.1967 7.84344 61 9.87827 61 12V56C61 58.1217 60.1967 60.1566 58.7667 61.6569C57.3367 63.1571 55.3973 64 53.375 64H7.625C5.60272 64 3.66328 63.1571 2.23331 61.6569C0.803346 60.1566 0 58.1217 0 56V12C0 9.87827 0.803346 7.84344 2.23331 6.34315C3.66328 4.84285 5.60272 4 7.625 4H11.4375V2C11.4375 1.46957 11.6383 0.960859 11.9958 0.585786C12.3533 0.210714 12.8382 0 13.3438 0V0ZM3.8125 16V56C3.8125 57.0609 4.21417 58.0783 4.92916 58.8284C5.64414 59.5786 6.61386 60 7.625 60H53.375C54.3861 60 55.3559 59.5786 56.0708 58.8284C56.7858 58.0783 57.1875 57.0609 57.1875 56V16H3.8125Z" fill="black"/>
</svg>
