<svg width="65" height="60" viewBox="0 0 75 79" fill="none" xmlns="http://www.w3.org/2000/svg">
<path d="M56.25 39.5C54.5313 39.5 53.125 40.9812 53.125 42.7916V59.9741C53.125 61.7846 51.7188 63.2658 50 63.2658H18.75C17.0313 63.2658 15.625 61.7846 15.625 59.9741V26.3333C15.625 24.5229 17.0313 23.0416 18.75 23.0416H34.375C36.0938 23.0416 37.5 21.5604 37.5 19.75C37.5 17.9396 36.0938 16.4583 34.375 16.4583H15.625C12.1875 16.4583 9.375 19.4208 9.375 23.0416V62.5416C9.375 66.1625 12.1875 69.125 15.625 69.125H53.125C56.5625 69.125 59.375 66.1625 59.375 62.5416V42.7916C59.375 40.9812 57.9688 39.5 56.25 39.5ZM65.6875 16.4583H59.375V9.80915C59.375 8.03165 58 6.58331 56.3125 6.58331H56.2188C54.5 6.58331 53.125 8.03165 53.125 9.80915V16.4583H46.8438C45.1563 16.4583 43.7813 17.9066 43.75 19.6841V19.7829C43.75 21.5933 45.125 23.0416 46.8438 23.0416H53.125V29.6579C53.125 31.4354 54.5 32.9166 56.2188 32.8837H56.3125C58 32.8837 59.375 31.4354 59.375 29.6579V23.0416H65.6875C67.375 23.0416 68.75 21.5933 68.75 19.8158V19.6841C68.75 17.9066 67.375 16.4583 65.6875 16.4583Z" fill="black"/>
<path d="M43.75 29.625H25C23.2813 29.625 21.875 31.1062 21.875 32.9167C21.875 34.7271 23.2813 36.2083 25 36.2083H43.75C45.4688 36.2083 46.875 34.7271 46.875 32.9167C46.875 31.1062 45.4688 29.625 43.75 29.625ZM43.75 39.5H25C23.2813 39.5 21.875 40.9812 21.875 42.7917C21.875 44.6021 23.2813 46.0833 25 46.0833H43.75C45.4688 46.0833 46.875 44.6021 46.875 42.7917C46.875 40.9812 45.4688 39.5 43.75 39.5ZM43.75 49.375H25C23.2813 49.375 21.875 50.8562 21.875 52.6667C21.875 54.4771 23.2813 55.9583 25 55.9583H43.75C45.4688 55.9583 46.875 54.4771 46.875 52.6667C46.875 50.8562 45.4688 49.375 43.75 49.375Z" fill="black"/>
</svg>
